<?xml version="1.0" standalone="no"?>
<!DOCTYPE svg PUBLIC "-//W3C//DTD SVG 20010904//EN"
 "http://www.w3.org/TR/2001/REC-SVG-20010904/DTD/svg10.dtd">
<svg version="1.0" xmlns="http://www.w3.org/2000/svg"
 width="600.000000pt" height="600.000000pt" viewBox="0 0 600.000000 600.000000"
 preserveAspectRatio="xMidYMid meet">
<g transform="translate(0.000000,600.000000) scale(0.100000,-0.100000)"
fill="#000000" stroke="none">
<path d="M2837 5035 c-418 -51 -832 -236 -1121 -503 -46 -42 -51 -56 -40 -99
6 -21 12 -17 83 48 240 222 579 390 936 466 123 26 145 27 390 27 246 0 267
-1 390 -27 379 -81 703 -248 975 -504 255 -239 457 -575 544 -900 l22 -85 38
-4 c29 -2 37 0 32 11 -2 7 -10 33 -16 57 -30 116 -87 269 -145 385 -352 709
-1065 1149 -1855 1142 -69 -1 -174 -7 -233 -14z m356 -22 c-7 -2 -21 -2 -30 0
-10 3 -4 5 12 5 17 0 24 -2 18 -5z m-516 -39 c-3 -3 -12 -4 -19 -1 -8 3 -5 6
6 6 11 1 17 -2 13 -5z m-177 -44 c-8 -5 -19 -10 -25 -10 -5 0 -3 5 5 10 8 5
20 10 25 10 6 0 3 -5 -5 -10z m1211 -8 c-7 -2 -18 1 -23 6 -8 8 -4 9 13 5 13
-4 18 -8 10 -11z m-1301 -22 c0 -5 -8 -10 -17 -10 -15 0 -16 2 -3 10 19 12 20
12 20 0z m1370 0 c8 -5 11 -10 5 -10 -5 0 -17 5 -25 10 -8 5 -10 10 -5 10 6 0
17 -5 25 -10z m-1471 -33 c-16 -12 -79 -45 -79 -42 0 7 63 45 74 45 5 0 7 -1
5 -3z m1591 -12 c17 -9 30 -18 30 -21 0 -4 -59 23 -69 32 -10 9 13 3 39 -11z
m-1681 -28 c-2 -1 -13 -9 -24 -17 -19 -14 -19 -14 -6 3 7 9 18 17 24 17 6 0 8
-1 6 -3z m1775 -23 c7 -19 2 -18 -19 6 -16 17 -16 20 -3 15 9 -4 19 -13 22
-21z m-1840 -18 c-10 -8 -21 -12 -24 -10 -5 6 21 24 34 24 6 0 1 -6 -10 -14z
m1896 -12 c0 -2 -9 0 -20 6 -11 6 -20 13 -20 16 0 2 9 0 20 -6 11 -6 20 -13
20 -16z m-1930 2 c0 -3 -4 -8 -10 -11 -5 -3 -10 -1 -10 4 0 6 5 11 10 11 6 0
10 -2 10 -4z m1960 -16 c0 -5 -2 -10 -4 -10 -3 0 -8 5 -11 10 -3 6 -1 10 4 10
6 0 11 -4 11 -10z m-2010 -20 c-8 -5 -19 -10 -25 -10 -5 0 -3 5 5 10 8 5 20
10 25 10 6 0 3 -5 -5 -10z m-40 -13 c0 -2 -9 -12 -19 -21 -14 -13 -21 -14 -27
-5 -4 7 -3 10 3 6 6 -4 16 0 23 8 12 14 20 19 20 12z m2125 -7 c3 -5 2 -10 -4
-10 -5 0 -13 5 -16 10 -3 6 -2 10 4 10 5 0 13 -4 16 -10z m-2185 -34 c0 -2 -8
-10 -17 -17 -16 -13 -17 -12 -4 4 13 16 21 21 21 13z m2260 -16 c0 -5 -2 -10
-4 -10 -3 0 -8 5 -11 10 -3 6 -1 10 4 10 6 0 11 -4 11 -10z m-2326 -34 c-3 -7
-17 -19 -32 -25 -27 -12 -27 -12 3 13 35 30 36 30 29 12z m2426 -46 c0 -6 -9
-2 -20 7 -11 10 -20 19 -20 21 0 1 9 -2 20 -8 11 -6 20 -15 20 -20z m-2500
-10 c-24 -15 -36 -11 -14 4 10 8 21 12 24 10 2 -3 -2 -9 -10 -14z m2560 -36
c20 -3 21 -4 15 -15 -8 -12 -45 17 -45 35 0 6 5 4 10 -4 5 -8 14 -16 20 -16z
m83 -69 c23 -32 17 -32 -13 0 -13 14 -19 25 -14 25 5 0 17 -12 27 -25z m42
-45 c3 -6 -1 -7 -9 -4 -18 7 -21 14 -7 14 6 0 13 -4 16 -10z m225 -244 c0 -3
-4 -8 -10 -11 -5 -3 -10 -1 -10 4 0 6 5 11 10 11 6 0 10 -2 10 -4z m10 -32 c0
-8 -5 -12 -10 -9 -6 4 -8 11 -5 16 9 14 15 11 15 -7z m43 -74 c-6 -6 -33 30
-33 43 0 5 9 -1 19 -14 11 -13 17 -26 14 -29z m28 -53 c-10 -9 -11 -8 -5 6 3
10 9 15 12 12 3 -3 0 -11 -7 -18z m24 -16 c3 -5 2 -12 -3 -15 -5 -3 -9 1 -9 9
0 17 3 19 12 6z m55 -116 c0 -5 -11 8 -25 30 -13 22 -24 45 -24 50 0 6 11 -8
24 -30 14 -22 25 -44 25 -50z m69 -149 c-3 -3 -11 5 -18 17 -13 21 -12 21 5 5
10 -10 16 -20 13 -22z m50 -148 c6 -18 7 -28 2 -23 -10 12 -25 55 -18 55 3 0
10 -15 16 -32z"/>
<path d="M2960 4874 c-173 -20 -231 -29 -338 -55 -320 -78 -602 -234 -860
-475 -59 -55 -63 -61 -56 -91 l6 -33 79 80 c476 477 1218 650 1874 435 553
-181 1000 -638 1165 -1189 25 -82 29 -89 54 -92 23 -2 26 0 20 18 -3 11 -14
48 -24 82 -20 69 -82 229 -113 291 -76 151 -203 329 -327 459 -282 294 -649
485 -1060 551 -94 15 -353 27 -420 19z"/>
<path d="M1464 4796 c-8 -20 2 -265 12 -290 3 -9 2 -16 -3 -16 -4 0 -16 21
-26 48 -9 26 -21 54 -27 62 -22 33 -31 -12 -26 -128 2 -67 1 -110 -5 -106 -5
3 -9 13 -9 23 0 27 -21 81 -31 81 -5 0 -9 -18 -9 -41 0 -24 -4 -38 -10 -34
-12 7 -12 -48 0 -85 7 -22 8 -19 9 16 1 22 4 43 7 47 12 11 33 -5 27 -21 -4
-15 -3 -15 6 -2 6 8 11 11 11 7 0 -4 9 -3 20 3 12 7 17 16 13 27 -5 12 -3 14
8 9 8 -5 8 -2 -2 6 -16 13 -16 27 -4 76 4 15 2 21 -5 17 -6 -4 -10 3 -10 17 1
23 1 23 23 -4 27 -33 57 -37 57 -7 0 12 4 17 11 13 8 -4 8 -1 0 13 -5 11 -10
28 -10 39 1 10 -1 49 -4 85 -3 37 -2 71 2 78 8 12 41 -82 41 -116 0 -11 7 -38
16 -59 9 -21 16 -56 16 -76 -1 -21 3 -38 8 -38 4 0 8 -10 8 -22 0 -13 8 -57
17 -98 9 -41 17 -82 17 -90 0 -8 4 -31 8 -50 5 -19 11 -57 14 -84 3 -27 10
-54 14 -60 5 -6 9 -24 10 -40 1 -16 11 -73 22 -128 11 -55 20 -102 20 -104 0
-14 42 -22 71 -13 19 6 43 12 54 14 11 2 40 8 63 13 24 6 54 8 65 5 18 -4 20
-3 7 7 -12 9 -10 10 13 5 16 -3 27 -2 24 2 -3 4 11 9 31 10 20 1 45 6 57 12
11 5 40 14 65 19 25 6 66 16 92 23 26 6 57 9 68 6 12 -3 18 -1 14 5 -4 7 5 8
27 3 25 -4 30 -3 19 4 -12 9 -9 11 14 11 28 0 28 -1 12 -19 -15 -16 -15 -20
-1 -31 8 -7 32 -11 54 -8 32 3 38 0 36 -13 -3 -14 1 -14 37 3 56 27 34 39 -54
31 -38 -3 -68 -3 -68 1 0 3 18 13 40 22 22 9 40 23 40 32 0 23 -75 12 -360
-53 -135 -31 -272 -62 -305 -69 -33 -7 -66 -15 -74 -17 -11 -3 -22 37 -48 171
-100 520 -125 640 -153 730 -17 54 -39 109 -49 122 -18 22 -20 22 -27 4z"/>
<path d="M3132 4624 c-27 -19 -29 -64 -4 -87 10 -10 23 -17 28 -17 20 0 53
-31 48 -45 -8 -20 -53 -19 -74 0 -15 14 -19 14 -31 -1 -11 -14 -10 -18 6 -31
33 -23 65 -27 101 -10 29 14 34 22 34 52 0 33 -4 38 -46 56 -36 16 -45 25 -42
42 4 27 34 34 57 13 16 -14 20 -14 30 -2 30 36 -61 63 -107 30z"/>
<path d="M2828 4549 c-41 -24 -11 -79 41 -79 12 0 21 -6 21 -16 0 -11 -8 -15
-28 -13 -35 4 -60 -10 -41 -22 24 -15 68 -10 89 11 32 32 21 58 -31 69 -38 8
-37 26 1 26 15 1 25 7 25 15 0 18 -52 24 -77 9z"/>
<path d="M3317 4553 c-25 -7 -15 -28 14 -29 42 -1 49 -4 49 -19 0 -11 -8 -13
-30 -9 -33 7 -80 -17 -80 -41 0 -23 31 -46 59 -44 14 1 34 -2 44 -6 23 -10 23
-9 31 55 5 39 3 60 -6 72 -14 19 -53 29 -81 21z m53 -92 c0 -15 -29 -33 -45
-27 -28 10 -17 36 15 36 17 0 30 -4 30 -9z"/>
<path d="M1230 4488 c0 -35 7 -107 15 -160 13 -90 110 -592 121 -630 4 -12 -4
-18 -28 -23 -18 -3 -161 -35 -318 -70 -157 -35 -341 -75 -410 -90 -119 -25
-349 -95 -379 -114 -8 -5 -10 -14 -6 -21 10 -16 234 -7 331 13 l61 12 -33 16
c-22 10 -37 13 -46 7 -9 -7 -8 -8 5 -4 9 3 17 1 17 -4 0 -6 -10 -10 -22 -11
-35 -1 -120 -9 -149 -14 -14 -2 -31 1 -38 8 -8 8 -11 8 -11 -1 0 -7 -10 -12
-22 -12 -39 0 32 37 86 45 25 4 43 11 40 16 -8 14 20 11 35 -3 11 -10 12 -10
7 -1 -7 12 10 19 61 26 12 2 25 6 29 9 3 4 12 4 19 2 7 -3 26 1 42 9 15 8 46
18 68 21 22 4 58 9 80 13 22 4 54 6 70 6 17 0 23 2 15 5 -18 6 98 34 285 68
22 4 47 10 56 15 9 4 44 13 77 18 34 5 73 18 87 28 24 18 32 38 17 45 -12 5
-43 182 -37 219 4 26 3 28 -3 9 -6 -19 -11 -6 -21 60 -7 47 -19 112 -27 145
-31 141 -38 195 -26 195 6 0 10 -8 8 -17 -1 -10 8 -28 21 -40 25 -24 28 -23
14 5 -5 9 -20 62 -32 117 -34 158 -59 192 -59 83z m43 -118 c3 -11 1 -20 -4
-20 -5 0 -9 9 -9 20 0 11 2 20 4 20 2 0 6 -9 9 -20z"/>
<path d="M2724 4504 c12 -70 11 -76 -7 -88 -24 -14 -42 9 -51 64 -6 40 -12 46
-32 32 -8 -5 -6 -24 5 -66 19 -70 45 -87 85 -55 18 14 26 16 29 7 3 -9 8 -10
16 -2 18 17 -10 138 -33 142 -17 4 -18 -1 -12 -34z"/>
<path d="M3463 4458 c8 -66 20 -92 38 -85 9 3 99 114 99 121 0 3 -9 6 -20 6
-12 0 -30 -16 -46 -40 -31 -47 -39 -50 -40 -12 -3 77 -4 82 -22 82 -17 0 -18
-6 -9 -72z"/>
<path d="M2500 4460 c-38 -38 -18 -70 43 -70 47 0 47 -23 -1 -28 -45 -5 -43
-32 1 -32 40 0 70 28 65 62 -2 19 -10 23 -45 26 -49 4 -60 29 -16 34 14 2 28
9 31 16 6 20 -56 14 -78 -8z"/>
<path d="M3622 4447 c-23 -27 -32 -67 -20 -91 18 -42 103 -63 103 -26 0 9 -10
14 -29 15 -27 0 -57 27 -45 40 4 3 27 -3 52 -14 25 -11 48 -17 51 -14 11 12 6
59 -10 81 -17 25 -84 31 -102 9z m82 -30 c15 -24 3 -29 -34 -13 -30 12 -31 14
-14 24 23 14 34 11 48 -11z"/>
<path d="M2380 4413 c-31 -12 -50 -37 -50 -68 0 -76 79 -106 128 -49 21 24 23
30 9 32 -9 2 -25 -6 -36 -17 -12 -12 -27 -17 -40 -14 -32 8 -25 19 29 42 45
19 49 23 38 41 -10 15 -52 43 -61 39 -1 0 -9 -3 -17 -6z m37 -39 c2 -6 -8 -16
-22 -22 -33 -15 -35 -15 -35 1 0 31 48 48 57 21z"/>
<path d="M2203 4394 c-7 -3 3 -29 29 -74 46 -80 46 -105 3 -105 -19 0 -31 -6
-33 -16 -4 -23 35 -31 69 -13 47 24 46 53 -1 139 -23 41 -44 75 -48 74 -4 0
-12 -3 -19 -5z"/>
<path d="M3796 4388 c-23 -13 -20 -48 6 -75 16 -17 19 -26 11 -34 -8 -8 -17
-5 -33 11 -12 12 -28 20 -37 18 -14 -2 -12 -7 8 -30 34 -37 63 -44 88 -19 27
27 26 37 -6 67 -19 17 -23 28 -16 35 8 8 17 5 33 -11 16 -16 25 -19 33 -11 25
25 -52 69 -87 49z"/>
<path d="M1420 4341 c0 -6 4 -13 10 -16 6 -3 7 1 4 9 -7 18 -14 21 -14 7z"/>
<path d="M4071 4261 c-6 -29 -11 -60 -11 -70 0 -9 -13 -30 -30 -46 -35 -33
-36 -40 -13 -49 12 -5 24 3 41 23 17 23 42 36 94 52 63 19 68 23 54 37 -13 14
-19 13 -58 -1 -24 -10 -46 -17 -49 -17 -4 0 -2 20 4 45 9 38 8 48 -5 61 -14
15 -17 11 -27 -35z"/>
<path d="M2950 4245 c-8 -2 -49 -9 -90 -15 -167 -28 -315 -87 -475 -190 -96
-63 -113 -82 -54 -61 18 6 42 11 55 11 13 0 40 12 61 26 99 68 253 129 403
160 116 25 353 25 468 1 375 -80 690 -321 847 -649 29 -60 39 -72 60 -73 14 0
25 5 25 12 0 21 -87 181 -142 260 -133 193 -360 365 -588 448 -135 48 -233 66
-400 70 -85 2 -162 2 -170 0z"/>
<path d="M4155 4108 c-64 -35 -60 -117 7 -141 27 -10 74 12 87 39 16 36 14 50
-11 78 -28 30 -57 39 -83 24z m69 -50 c8 -13 6 -22 -8 -37 -23 -25 -61 -27
-70 -5 -9 24 -8 31 10 49 20 19 53 16 68 -7z"/>
<path d="M1711 4014 c0 -11 3 -14 6 -6 3 7 2 16 -1 19 -3 4 -6 -2 -5 -13z"/>
<path d="M4273 3960 c-23 -17 -45 -40 -48 -51 -7 -23 19 -59 42 -59 8 0 12 -4
9 -9 -4 -5 -3 -16 0 -25 5 -12 17 -7 62 26 32 23 59 43 61 44 2 2 -2 10 -9 19
-11 13 -17 11 -52 -17 -31 -24 -44 -29 -57 -21 -29 18 -23 39 19 67 38 25 47
45 24 53 -5 2 -28 -11 -51 -27z"/>
<path d="M1202 3822 c-23 -55 -42 -102 -42 -105 0 -3 18 0 39 5 33 8 41 16 54
51 14 36 14 50 4 95 l-13 53 -42 -99z"/>
<path d="M2570 3813 c-55 -8 -67 -13 -67 -28 0 -8 4 -15 9 -15 4 0 8 4 8 9 0
4 15 8 33 8 17 0 46 3 62 8 l30 8 -34 -32 c-25 -24 -31 -35 -23 -43 8 -8 8
-15 1 -24 -7 -8 -7 -14 1 -19 6 -4 9 -1 8 7 -2 8 8 14 27 16 17 1 62 9 100 17
82 18 152 26 255 30 41 2 82 6 91 9 10 5 16 2 16 -8 0 -8 -6 -12 -14 -9 -7 3
-13 1 -13 -4 0 -5 -16 -14 -35 -20 -20 -7 -35 -7 -35 -2 0 5 -17 1 -37 -10
-47 -23 -211 -64 -230 -57 -9 4 -11 1 -7 -6 5 -7 -1 -9 -20 -6 -14 3 -26 2
-26 -2 0 -4 -26 -12 -57 -18 -116 -22 -169 -33 -209 -43 -30 -8 -48 -8 -65 0
-20 9 -21 9 -7 -1 18 -13 21 -12 -252 -74 -36 -8 -112 -24 -170 -35 -126 -25
-142 -35 -132 -93 4 -22 6 -58 6 -78 0 -21 3 -33 6 -28 3 5 12 -17 18 -50 7
-33 10 -65 7 -71 -4 -5 -2 -15 3 -22 11 -13 27 -102 24 -129 -1 -10 2 -18 6
-18 5 0 9 -6 10 -12 1 -7 3 -26 4 -43 2 -16 7 -36 12 -43 4 -7 9 -39 11 -70 2
-31 5 -64 9 -72 11 -31 26 -97 35 -160 6 -36 15 -92 21 -125 7 -33 13 -69 14
-80 3 -22 19 -104 43 -208 8 -38 12 -75 9 -83 -3 -8 -1 -14 5 -14 6 0 9 -8 8
-17 -1 -10 0 -25 3 -33 3 -8 13 -55 22 -105 8 -49 25 -142 37 -205 24 -129 28
-155 39 -255 8 -79 18 -108 32 -99 17 11 5 82 -152 919 -155 821 -209 1106
-215 1124 -4 15 71 34 543 139 678 151 856 202 823 235 -25 25 -284 8 -474
-29 -43 -9 -82 -14 -88 -12 -6 2 15 17 47 33 79 41 81 55 7 54 -32 -1 -69 -3
-83 -6z"/>
<path d="M4266 3768 c3 -5 10 -6 15 -3 13 9 11 12 -6 12 -8 0 -12 -4 -9 -9z"/>
<path d="M1088 3663 c6 -2 18 -2 25 0 6 3 1 5 -13 5 -14 0 -19 -2 -12 -5z"/>
<path d="M1308 3623 c7 -3 16 -2 19 1 4 3 -2 6 -13 5 -11 0 -14 -3 -6 -6z"/>
<path d="M998 3563 c7 -3 16 -2 19 1 4 3 -2 6 -13 5 -11 0 -14 -3 -6 -6z"/>
<path d="M3189 3397 c-106 -30 -199 -112 -232 -206 -13 -33 -19 -78 -19 -127
1 -65 5 -86 32 -140 51 -104 129 -155 369 -238 208 -72 242 -98 248 -190 8
-101 -65 -160 -197 -161 -141 0 -252 80 -295 213 l-17 52 -79 0 -79 0 0 -212
0 -213 80 0 80 0 11 53 c7 28 15 52 18 52 3 0 17 -11 29 -25 38 -39 142 -85
221 -97 184 -27 366 60 433 207 34 75 32 209 -3 285 -30 64 -81 119 -145 156
-25 15 -119 52 -209 84 -90 32 -179 66 -197 77 -69 40 -98 126 -64 191 23 44
91 77 161 77 108 0 198 -54 245 -148 17 -33 30 -68 30 -79 0 -16 9 -18 80 -18
l80 0 0 200 0 200 -75 0 -74 0 -12 -42 c-7 -24 -14 -45 -16 -47 -2 -3 -16 7
-31 22 -15 14 -54 38 -87 53 -49 23 -77 29 -150 31 -52 2 -109 -3 -136 -10z
m210 -19 c10 4 12 1 6 -8 -5 -9 -4 -11 3 -6 7 4 18 4 25 -1 6 -4 19 -8 27 -10
22 -3 60 -25 60 -35 0 -4 7 -8 17 -8 9 0 13 -3 10 -7 -4 -3 5 -12 20 -20 30
-15 37 -11 61 38 9 19 20 33 25 32 4 -2 25 -3 47 -3 l40 0 0 -164 0 -164 -32
-4 c-53 -8 -66 1 -100 71 -38 77 -83 123 -144 147 -24 9 -42 19 -40 23 2 3
-29 7 -69 9 -41 1 -76 -2 -80 -8 -3 -5 -13 -6 -22 -3 -11 4 -14 3 -9 -5 5 -8
0 -12 -14 -12 -21 0 -78 -54 -80 -75 -1 -5 -6 -16 -12 -22 -6 -8 -7 -31 -2
-60 4 -27 7 -51 6 -55 -4 -16 90 -99 118 -105 17 -3 33 -10 36 -14 3 -5 14 -9
25 -9 10 0 19 -5 19 -11 0 -5 4 -8 9 -4 5 3 35 -6 66 -20 30 -14 60 -23 65
-20 6 3 10 1 10 -5 0 -7 6 -10 14 -7 7 3 23 -1 34 -8 10 -8 22 -11 26 -8 3 3
6 2 6 -4 0 -9 48 -34 73 -37 4 -1 11 -6 15 -11 4 -6 23 -24 42 -40 19 -17 35
-32 36 -35 1 -3 11 -25 23 -49 18 -35 23 -61 24 -135 1 -119 -26 -182 -104
-241 -29 -22 -56 -41 -61 -41 -4 -1 -11 -3 -15 -4 -5 -1 -11 -2 -15 -1 -5 0
-8 -4 -8 -11 0 -6 -3 -8 -6 -5 -4 3 -15 2 -26 -4 -23 -12 -197 -19 -204 -8 -2
5 -11 6 -18 3 -15 -6 -136 51 -148 70 -4 6 -8 7 -8 1 0 -5 -7 0 -15 13 -10 14
-25 21 -41 20 -20 -2 -28 -12 -41 -48 l-16 -45 -51 0 -51 0 -3 177 -2 176 54
4 c30 1 53 1 51 -1 -2 -2 10 -30 27 -62 31 -61 139 -169 169 -169 8 0 21 -6
27 -12 19 -19 191 -17 228 2 73 38 121 119 111 190 -11 84 -81 146 -207 181
-25 7 -48 17 -51 22 -3 5 -10 8 -15 8 -16 -2 -108 31 -133 46 -13 8 -20 10
-17 4 4 -6 -8 -2 -26 9 -18 10 -46 27 -61 35 -32 19 -49 35 -97 95 -32 41 -34
50 -38 132 -5 90 11 178 31 178 6 0 7 3 4 7 -4 3 11 23 32 45 22 21 36 38 33
38 -12 1 65 37 114 54 26 9 58 13 72 9 15 -3 23 -2 19 3 -3 6 17 7 51 3 31 -3
63 -4 71 -1z"/>
<path d="M585 3382 c-27 -9 -50 -21 -50 -26 0 -11 151 -8 192 3 l28 8 -28 8
c-16 4 -46 5 -68 2 -34 -4 -38 -3 -28 9 6 8 10 14 8 13 -2 0 -26 -8 -54 -17z"/>
<path d="M2370 3309 l0 -80 70 2 71 2 -1 -391 c0 -247 -4 -402 -11 -419 -32
-86 -135 -126 -224 -89 -35 15 -47 36 -21 36 24 0 75 59 82 95 14 79 -39 145
-125 152 -117 11 -197 -123 -156 -262 31 -106 132 -179 269 -194 186 -20 330
53 388 197 22 56 23 66 26 467 l3 411 70 -4 69 -4 0 81 0 81 -255 0 -255 0 0
-81z m311 41 l169 0 0 -40 c0 -31 -4 -40 -17 -40 -46 -1 -98 -13 -111 -26 -11
-12 -14 -90 -18 -423 -4 -407 -4 -409 -28 -464 -36 -80 -120 -155 -165 -148
-7 1 -11 -1 -8 -6 3 -5 -2 -9 -11 -10 -9 -1 -28 -3 -42 -6 -26 -4 -173 6 -200
14 -8 2 -21 10 -28 17 -8 7 -18 10 -23 7 -5 -4 -9 -1 -9 6 0 7 -3 9 -7 6 -10
-11 -73 60 -94 107 -16 38 -18 54 -10 109 11 76 23 98 65 118 77 35 165 -8
160 -79 -1 -20 -3 -38 -4 -39 -1 -2 -3 -7 -4 -11 -1 -11 -33 -42 -42 -42 -10
0 -44 -31 -44 -40 0 -31 103 -85 144 -74 12 3 29 6 37 8 33 6 58 18 63 31 3 8
12 15 21 15 8 0 15 7 15 15 0 7 8 19 18 24 9 6 13 11 7 11 -5 0 -5 4 2 8 25
16 34 177 27 489 -4 169 -6 318 -5 329 1 33 -26 48 -85 48 l-54 0 0 43 0 42
43 4 c23 2 48 2 55 0 8 -2 90 -3 183 -3z"/>
<path d="M3860 3313 l0 -78 67 0 67 0 138 -205 c76 -113 159 -238 184 -278
l46 -73 1 -174 2 -175 -72 0 -73 0 0 -75 0 -75 255 0 255 0 0 75 0 75 -72 0
-73 0 3 182 3 183 131 210 c72 115 150 238 172 273 l41 62 60 -1 c33 -1 61 1
63 4 1 4 2 39 2 77 l0 70 -240 0 -240 0 0 -80 0 -81 65 4 c36 2 65 2 65 1 0
-2 -13 -22 -29 -46 -16 -24 -66 -104 -111 -178 -45 -74 -83 -136 -85 -138 -2
-2 -12 13 -23 35 -17 32 -142 238 -189 310 l-15 23 61 -5 61 -4 0 79 0 80
-260 0 -260 0 0 -77z m488 -3 c3 -42 0 -45 -54 -41 -11 1 -28 -7 -38 -18 -18
-20 -18 -22 4 -63 12 -24 35 -62 51 -86 16 -24 29 -47 29 -53 0 -5 5 -9 11 -9
5 0 8 -4 4 -9 -3 -6 3 -14 12 -20 10 -6 14 -11 9 -11 -4 0 3 -15 16 -32 14
-18 28 -43 32 -55 4 -13 11 -23 16 -23 4 0 10 -9 13 -20 9 -33 44 -24 73 18
74 109 94 142 87 142 -5 0 -3 4 2 8 14 10 77 103 79 117 1 5 9 21 19 35 22 31
21 36 -2 62 -15 15 -27 19 -46 14 -20 -5 -25 -4 -19 6 5 10 4 11 -7 1 -23 -22
-29 -15 -29 35 l0 47 209 0 209 0 4 -42 3 -43 -40 -1 c-22 -1 -45 -1 -50 0
-16 1 -59 -53 -132 -164 -73 -112 -120 -191 -129 -217 -4 -10 -10 -18 -15 -18
-9 0 -40 -55 -38 -66 0 -3 -10 -18 -24 -32 -13 -15 -29 -36 -34 -47 -6 -11
-13 -104 -17 -206 l-7 -186 25 -17 c15 -9 46 -16 76 -16 l50 0 0 -45 0 -45
-225 0 -225 0 0 44 0 44 66 7 c54 6 66 10 73 28 4 12 7 97 6 189 -1 158 -2
169 -23 191 -12 13 -19 27 -15 30 3 4 1 7 -6 7 -8 0 -11 7 -7 15 3 8 1 15 -4
15 -5 0 -16 13 -25 29 -8 17 -26 43 -40 58 -42 48 -46 53 -39 53 4 0 -2 10
-14 23 -11 12 -21 27 -22 32 0 6 -18 35 -39 65 -21 30 -39 58 -40 62 -1 4 -12
19 -26 34 -13 14 -30 39 -37 54 -7 16 -17 26 -22 23 -6 -4 -6 1 -2 13 4 10 4
15 0 11 -4 -3 -14 1 -23 11 -10 11 -31 17 -56 17 -60 -1 -65 3 -65 49 l0 41
227 -2 228 -2 3 -41z"/>
<path d="M1901 3369 c-18 -7 -22 -14 -17 -32 3 -12 6 -32 6 -44 0 -13 5 -23
10 -23 6 0 10 11 10 24 0 14 5 37 10 52 13 32 11 34 -19 23z"/>
<path d="M1330 3349 c-41 -10 -84 -16 -95 -13 -16 4 -17 3 -5 -5 11 -8 4 -11
-31 -11 -26 0 -62 -6 -80 -14 -31 -13 -66 -21 -139 -31 -14 -2 -38 -8 -53 -14
-16 -6 -52 -11 -80 -12 -37 0 -46 -3 -32 -8 14 -6 4 -8 -32 -8 -29 0 -50 4
-47 9 8 12 -12 10 -50 -6 -117 -49 33 -46 264 5 80 17 221 49 315 70 93 20
171 36 172 35 2 -1 16 -74 32 -162 16 -87 71 -373 121 -634 116 -608 179 -939
236 -1250 35 -187 100 -421 130 -467 8 -13 21 -23 29 -23 12 0 15 17 15 93 0
104 -16 227 -30 241 -7 7 -10 1 -11 -15 -3 -45 -6 -66 -13 -77 -3 -6 0 -15 9
-19 11 -6 15 -30 17 -88 2 -44 7 -84 13 -88 6 -5 5 -7 -3 -5 -8 2 -13 7 -12
12 1 5 -3 12 -9 16 -7 3 -13 21 -14 38 -1 18 -5 32 -8 32 -8 0 -33 90 -30 107
1 6 -3 14 -8 18 -6 3 -8 12 -5 19 3 8 1 17 -5 21 -13 8 -15 62 -2 69 11 7 24
-43 25 -91 1 -32 11 -51 22 -40 4 3 -3 70 -14 149 -12 78 -19 144 -18 145 2 2
18 -26 35 -62 49 -100 67 -87 51 36 -12 103 -20 115 -34 54 -4 -20 -3 -25 3
-16 6 10 8 5 7 -17 -1 -17 -5 -34 -9 -39 -5 -4 -7 -1 -5 7 2 8 -2 14 -8 13 -7
-1 -11 5 -10 14 2 25 -34 25 -43 0 -9 -25 -8 -82 2 -113 6 -15 3 -23 -9 -28
-12 -4 -15 -2 -10 9 3 8 2 15 -3 15 -9 0 -35 140 -35 197 0 23 -3 37 -7 32 -3
-6 -12 25 -19 68 -7 43 -14 85 -16 93 -2 8 -5 31 -8 50 -2 20 -9 54 -15 76
-13 49 -43 213 -43 234 0 8 -9 53 -19 100 -21 89 -34 145 -44 193 -4 22 -3 27
7 21 9 -5 9 -2 -1 10 -8 9 -19 43 -24 74 -5 31 -13 80 -18 107 -5 28 -11 63
-14 80 -2 16 -12 61 -20 100 -9 38 -17 88 -19 110 -2 22 -9 53 -15 70 -7 16
-10 46 -7 65 4 22 3 28 -2 16 -6 -14 -12 3 -22 60 -7 43 -13 95 -14 116 0 20
-4 34 -8 31 -5 -2 -8 12 -8 31 0 47 1 41 -15 80 -8 20 -15 50 -15 68 0 65 -27
74 -140 47z"/>
<path d="M683 3326 c-130 -50 -130 -61 2 -69 33 -2 71 -7 85 -11 17 -5 16 -3
-6 7 -18 8 -34 20 -38 25 -3 6 -16 8 -29 5 -21 -4 -22 -4 -3 11 11 9 29 16 40
16 15 0 17 3 8 9 -10 6 -4 12 20 24 54 27 9 17 -79 -17z"/>
<path d="M770 3330 c-8 -5 -10 -10 -5 -10 6 0 17 5 25 10 8 5 11 10 5 10 -5 0
-17 -5 -25 -10z"/>
<path d="M1240 3230 l-25 -6 -3 -179 c-6 -381 81 -699 277 -1010 62 -99 160
-229 167 -222 11 11 -30 113 -63 158 -143 194 -256 453 -302 691 -30 157 -44
354 -33 473 6 55 9 100 8 101 0 0 -12 -2 -26 -6z"/>
<path d="M1063 3193 c-19 -4 -22 -13 -28 -96 -4 -51 -2 -152 5 -227 33 -397
169 -758 400 -1065 72 -95 259 -299 267 -291 3 3 0 27 -6 55 -8 40 -22 62 -71
113 -342 356 -545 890 -528 1393 3 83 0 125 -7 124 -5 -1 -20 -4 -32 -6z m14
-405 c-3 -8 -6 -5 -6 6 -1 11 2 17 5 13 3 -3 4 -12 1 -19z m70 -310 c-3 -8 -6
-5 -6 6 -1 11 2 17 5 13 3 -3 4 -12 1 -19z m35 -113 c3 -13 2 -22 -2 -20 -4 3
-10 16 -12 30 -3 13 -2 22 2 20 4 -3 10 -16 12 -30z m48 -116 c0 -6 -4 -7 -10
-4 -5 3 -10 11 -10 16 0 6 5 7 10 4 6 -3 10 -11 10 -16z m40 -75 c0 -8 -19
-13 -24 -6 -3 5 1 9 9 9 8 0 15 -2 15 -3z m38 -91 c25 -39 29 -51 8 -31 -7 8
-23 34 -35 59 -21 43 -19 41 27 -28z m92 -157 c0 -8 6 -17 13 -19 9 -4 9 -6 0
-6 -7 -1 -17 8 -23 19 -7 14 -7 20 0 20 5 0 10 -6 10 -14z m54 -78 l16 -32
-24 24 c-14 12 -23 27 -20 31 8 14 11 11 28 -23z m61 -87 c-6 -5 -25 10 -25
20 0 5 6 4 14 -3 8 -7 12 -15 11 -17z m55 -57 c0 -2 -9 0 -20 6 -11 6 -20 13
-20 16 0 2 9 0 20 -6 11 -6 20 -13 20 -16z m50 -52 c0 -1 -9 2 -20 8 -11 6
-20 15 -20 20 0 6 9 2 20 -7 11 -10 20 -19 20 -21z"/>
<path d="M5060 3011 c0 -241 -28 -409 -106 -632 -244 -701 -862 -1206 -1604
-1310 -150 -21 -449 -16 -594 10 -178 32 -372 93 -531 167 -7 3 -9 -10 -7 -35
l4 -39 101 -40 c237 -94 424 -132 698 -139 209 -6 324 3 494 38 294 61 609
211 850 404 488 390 777 1001 763 1609 l-3 129 -33 1 -32 1 0 -164z m37 -128
c-3 -10 -5 -4 -5 12 0 17 2 24 5 18 2 -7 2 -21 0 -30z m-21 -189 c-4 -9 -9
-15 -11 -12 -3 3 -3 13 1 22 4 9 9 15 11 12 3 -3 3 -13 -1 -22z m-69 -286 c-3
-8 -6 -5 -6 6 -1 11 2 17 5 13 3 -3 4 -12 1 -19z m-16 -45 c-12 -20 -14 -14
-5 12 4 9 9 14 11 11 3 -2 0 -13 -6 -23z m-40 -102 c-6 -10 -7 -21 -4 -25 3
-3 1 -6 -5 -6 -7 0 -12 3 -12 6 0 9 20 44 26 44 2 0 0 -8 -5 -19z m-60 -128
c-12 -20 -14 -14 -5 12 4 9 9 14 11 11 3 -2 0 -13 -6 -23z m-18 -38 c-3 -9 -8
-14 -10 -11 -3 3 -2 9 2 15 9 16 15 13 8 -4z m-80 -135 c-14 -16 -28 -30 -30
-30 -3 0 5 14 17 30 12 17 26 30 31 30 5 0 -3 -13 -18 -30z m-39 -65 c-4 -8
-11 -12 -16 -9 -6 4 -5 10 3 15 19 12 19 11 13 -6z m-34 -45 c-6 -11 -13 -20
-16 -20 -2 0 0 9 6 20 6 11 13 20 16 20 2 0 0 -9 -6 -20z m-36 -51 c-9 -10
-22 -19 -27 -19 -6 0 0 8 11 19 12 10 18 22 14 26 -4 5 -1 5 6 1 11 -6 10 -12
-4 -27z m-24 -32 c0 -2 -10 -12 -22 -23 l-23 -19 19 23 c18 21 26 27 26 19z
m-50 -62 c-7 -9 -15 -13 -19 -10 -3 3 1 10 9 15 21 14 24 12 10 -5z m-71 -75
c-23 -27 -49 -50 -58 -49 -14 0 -14 1 -1 6 8 4 32 26 54 50 53 59 57 54 5 -7z
m-69 -63 c0 -2 -10 -12 -21 -23 -22 -19 -22 -19 -8 4 12 19 29 30 29 19z m-50
-46 c0 -5 -12 -16 -27 -26 l-28 -17 25 25 c28 29 30 30 30 18z m-71 -67 c-14
-13 -16 -13 -16 0 0 8 4 13 9 10 4 -3 8 0 8 7 0 7 3 9 7 5 4 -3 0 -13 -8 -22z
m-84 -64 c-3 -5 -15 -15 -25 -20 -16 -8 -18 -8 -14 5 3 8 10 13 14 10 5 -3 11
-1 15 5 3 5 8 10 11 10 3 0 2 -4 -1 -10z m-131 -84 c-10 -8 -21 -12 -23 -10
-3 2 4 11 15 18 10 8 21 12 23 10 3 -2 -4 -11 -15 -18z m-54 -19 c0 -2 -10
-12 -22 -23 l-23 -19 19 23 c18 21 26 27 26 19z m-70 -47 c-8 -5 -19 -10 -25
-10 -5 0 -3 5 5 10 8 5 20 10 25 10 6 0 3 -5 -5 -10z m-50 -25 c0 -2 -10 -9
-22 -15 -22 -11 -22 -10 -4 4 21 17 26 19 26 11z m-115 -55 c-3 -5 -12 -10
-18 -10 -7 0 -6 4 3 10 19 12 23 12 15 0z m-1410 -30 c19 -8 19 -9 -2 -9 -12
-1 -25 4 -28 9 -7 12 2 12 30 0z m1284 -3 c-2 -1 -13 -9 -24 -17 -19 -14 -19
-14 -6 3 7 9 18 17 24 17 6 0 8 -1 6 -3z m-1234 -17 c3 -6 -1 -7 -9 -4 -18 7
-21 14 -7 14 6 0 13 -4 16 -10z m70 -20 c3 -5 1 -10 -4 -10 -6 0 -11 5 -11 10
0 6 2 10 4 10 3 0 8 -4 11 -10z m104 -26 c10 -9 -35 -3 -49 6 -11 8 -7 9 15 4
17 -4 32 -8 34 -10z m268 -40 c-3 -3 -12 -4 -19 -1 -8 3 -5 6 6 6 11 1 17 -2
13 -5z m60 0 c-3 -3 -12 -4 -19 -1 -8 3 -5 6 6 6 11 1 17 -2 13 -5z m210 0
c-3 -3 -12 -4 -19 -1 -8 3 -5 6 6 6 11 1 17 -2 13 -5z m66 -1 c-7 -2 -21 -2
-30 0 -10 3 -4 5 12 5 17 0 24 -2 18 -5z"/>
<path d="M4943 3128 c-6 -14 -17 -29 -22 -33 -7 -3 -11 -43 -11 -93 0 -160
-31 -350 -82 -512 -28 -86 -45 -220 -29 -220 11 0 90 240 115 350 32 135 48
297 44 430 -3 91 -5 101 -15 78z"/>
<path d="M4835 2999 c-4 -6 -5 -12 -2 -15 2 -3 7 2 10 11 7 17 1 20 -8 4z"/>
<path d="M3051 2746 c-9 -11 -9 -16 1 -22 7 -4 10 -4 6 1 -4 4 -3 14 3 22 6 7
9 13 6 13 -2 0 -10 -6 -16 -14z"/>
<path d="M4246 2644 c-10 -36 -43 -113 -72 -172 -336 -683 -1212 -893 -1822
-436 -65 48 -199 120 -208 111 -8 -8 204 -177 281 -223 432 -262 988 -241
1397 53 202 145 373 368 454 593 28 77 29 88 6 118 -17 22 -17 22 -36 -44z"/>
<path d="M4632 2064 c-97 -164 -315 -398 -480 -514 -221 -156 -485 -267 -749
-315 -121 -23 -397 -31 -520 -16 -213 26 -435 90 -580 166 l-63 33 0 -32 c0
-31 3 -34 98 -73 444 -187 923 -204 1372 -48 397 138 751 422 969 778 l41 67
-30 0 c-26 0 -35 -8 -58 -46z"/>
<path d="M2020 1936 c0 -8 4 -17 9 -20 5 -4 7 3 4 14 -6 23 -13 26 -13 6z"/>
<path d="M3962 1888 c-18 -18 -15 -53 6 -71 25 -22 45 -21 67 3 22 24 13 39
-10 16 -9 -9 -21 -16 -26 -16 -17 0 -9 20 16 36 20 13 23 19 14 30 -14 17 -51
18 -67 2z m32 -25 c-13 -10 -20 -10 -23 -2 -4 14 19 30 33 22 5 -3 1 -12 -10
-20z"/>
<path d="M3900 1841 c0 -5 5 -22 10 -37 14 -36 9 -38 -24 -7 -17 16 -31 22
-37 16 -6 -6 6 -22 32 -42 25 -20 44 -30 50 -24 14 14 -1 103 -17 103 -8 0
-14 -4 -14 -9z"/>
<path d="M2420 1720 c-35 -69 -35 -70 -15 -70 8 0 15 6 15 13 0 6 4 18 9 26 8
12 13 12 34 -2 23 -15 37 -14 37 4 0 4 -11 10 -25 13 -25 6 -34 29 -15 41 5 3
20 -1 34 -10 17 -11 26 -13 31 -5 4 6 5 12 4 13 -2 2 -21 10 -41 20 l-38 17
-30 -60z"/>
<path d="M3764 1755 c-15 -23 -15 -27 0 -50 10 -15 26 -25 41 -25 15 0 31 10
41 25 15 23 15 27 0 50 -10 15 -26 25 -41 25 -15 0 -31 -10 -41 -25z m61 -25
c0 -16 -6 -26 -18 -28 -19 -4 -32 20 -23 44 9 25 41 13 41 -16z"/>
<path d="M3640 1748 c0 -10 36 -108 46 -126 5 -8 74 34 74 45 0 11 -6 10 -30
-2 -29 -15 -30 -15 -44 18 -7 19 -17 43 -20 55 -8 24 -26 30 -26 10z"/>
<path d="M2630 1691 c0 -11 26 -22 34 -14 12 12 5 23 -14 23 -11 0 -20 -4 -20
-9z"/>
<path d="M2525 1680 c3 -5 15 -10 26 -10 10 0 19 -5 19 -11 0 -7 -10 -9 -26
-5 -28 7 -54 -8 -54 -31 0 -11 54 -43 73 -43 2 0 10 18 17 40 10 32 11 42 0
55 -14 16 -65 21 -55 5z m30 -49 c3 -5 1 -13 -5 -16 -15 -9 -43 3 -35 15 8 13
32 13 40 1z"/>
<path d="M2767 1673 c-10 -16 -38 -135 -33 -140 10 -10 24 7 30 38 4 22 11 30
23 27 13 -2 17 -11 14 -28 -6 -43 -6 -45 4 -50 5 -3 13 15 18 39 9 47 -2 65
-35 57 -21 -5 -21 -5 -8 28 9 23 -2 47 -13 29z"/>
<path d="M2690 1660 c0 -5 -7 -10 -15 -10 -17 0 -20 -17 -4 -22 7 -2 7 -12 -1
-32 -14 -37 -7 -56 20 -56 21 0 28 16 8 22 -7 3 -9 14 -4 32 5 19 12 26 21 22
9 -3 15 1 15 9 0 8 -5 15 -11 15 -6 0 -9 7 -5 15 3 9 0 15 -9 15 -8 0 -15 -4
-15 -10z"/>
<path d="M2612 1621 c-14 -46 -15 -61 -3 -61 5 0 16 21 25 47 19 56 19 53 3
53 -8 0 -19 -17 -25 -39z"/>
<path d="M3412 1628 c-25 -25 -6 -88 28 -88 25 0 50 10 50 21 0 5 -13 6 -29 3
-16 -3 -31 -2 -35 4 -3 5 10 13 29 16 19 4 35 13 35 19 0 20 -22 37 -45 37
-12 0 -26 -5 -33 -12z m48 -17 c0 -5 -9 -11 -20 -14 -20 -5 -26 3 -13 16 9 10
33 8 33 -2z"/>
<path d="M3010 1583 c0 -27 -3 -58 -6 -70 -5 -17 -2 -23 10 -23 11 0 16 9 16
33 0 29 3 32 30 32 27 0 30 -3 30 -32 0 -23 5 -33 15 -33 12 0 15 14 15 70 0
50 -4 70 -13 70 -7 0 -13 -12 -12 -27 0 -25 -4 -28 -34 -31 -32 -3 -33 -2 -29
27 3 21 0 31 -9 31 -9 0 -13 -15 -13 -47z"/>
<path d="M3314 1609 c-3 -5 -15 -7 -26 -3 -16 5 -19 2 -15 -13 3 -10 9 -44 13
-75 6 -55 24 -72 24 -23 0 17 4 22 18 18 10 -2 26 5 37 17 15 16 17 26 9 47
-10 28 -49 49 -60 32z m39 -33 c8 -21 -17 -50 -37 -43 -16 6 -22 38 -9 50 11
12 41 7 46 -7z"/>
<path d="M4616 1608 c3 -5 10 -6 15 -3 13 9 11 12 -6 12 -8 0 -12 -4 -9 -9z"/>
<path d="M3577 1603 c-10 -10 -8 -53 2 -53 8 0 20 32 21 53 0 9 -14 9 -23 0z"/>
<path d="M3167 1582 c-23 -25 -21 -55 4 -78 19 -17 23 -17 47 -3 33 18 40 54
16 80 -22 24 -46 24 -67 1z m57 -25 c16 -25 -16 -56 -38 -37 -19 15 -20 32 -4
48 15 15 28 11 42 -11z"/>
<path d="M1606 1538 c3 -5 10 -6 15 -3 13 9 11 12 -6 12 -8 0 -12 -4 -9 -9z"/>
<path d="M3795 1534 c-9 -9 -13 -19 -10 -22 3 -3 11 0 17 6 18 18 30 14 23 -8
-5 -14 -2 -20 10 -20 9 0 15 -6 12 -12 -2 -7 -11 -12 -21 -10 -9 2 -16 -2 -16
-8 0 -15 36 -12 50 5 10 13 10 19 -5 35 -10 11 -15 20 -10 20 4 0 2 7 -5 15
-16 19 -25 19 -45 -1z"/>
<path d="M4540 1541 c0 -6 4 -13 10 -16 6 -3 7 1 4 9 -7 18 -14 21 -14 7z"/>
<path d="M2014 1522 c-6 -4 -12 -23 -13 -42 -1 -19 -2 -42 -3 -50 -3 -33 3
-60 12 -60 6 0 10 32 10 75 0 41 4 75 9 75 5 0 16 -44 25 -97 42 -244 55 -293
76 -293 14 0 12 136 -2 222 -9 55 -14 67 -22 56 -9 -12 -14 -13 -23 -3 -7 7
-10 15 -7 18 14 14 -26 107 -46 107 -3 0 -10 -4 -16 -8z m96 -201 c0 -32 -6
-24 -14 19 -4 25 -3 31 4 20 5 -8 10 -26 10 -39z"/>
<path d="M2877 1508 c-8 -30 0 -36 18 -12 18 24 19 34 1 34 -7 0 -16 -10 -19
-22z"/>
<path d="M3689 1503 c-13 -16 -12 -17 4 -4 16 13 21 21 13 21 -2 0 -10 -8 -17
-17z"/>
<path d="M3900 1511 c0 -6 4 -13 10 -16 6 -3 7 1 4 9 -7 18 -14 21 -14 7z"/>
<path d="M4256 1508 c3 -5 10 -6 15 -3 13 9 11 12 -6 12 -8 0 -12 -4 -9 -9z"/>
<path d="M3729 1488 c-9 -18 -9 -20 4 -15 10 4 19 -4 27 -24 11 -25 30 -40 30
-24 0 9 -40 85 -45 85 -2 0 -9 -10 -16 -22z"/>
<path d="M3623 1463 c-7 -2 -13 -12 -13 -21 0 -12 3 -13 12 -4 18 18 30 14 23
-8 -5 -14 -2 -20 10 -20 9 0 15 -6 12 -12 -2 -7 -11 -12 -21 -10 -9 2 -16 -2
-16 -8 0 -6 10 -10 23 -8 18 2 22 9 20 36 -1 31 -18 63 -32 61 -3 0 -12 -3
-18 -6z"/>
<path d="M2926 1452 c-3 -5 1 -9 9 -9 8 0 12 4 9 9 -3 4 -7 8 -9 8 -2 0 -6 -4
-9 -8z"/>
<path d="M3690 1450 c0 -5 5 -10 10 -10 6 0 10 5 10 10 0 6 -4 10 -10 10 -5 0
-10 -4 -10 -10z"/>
<path d="M1970 1429 c0 -5 5 -7 10 -4 6 3 10 8 10 11 0 2 -4 4 -10 4 -5 0 -10
-5 -10 -11z"/>
<path d="M3556 1424 c-8 -22 -8 -26 4 -19 6 4 13 -7 16 -24 4 -17 10 -31 15
-31 12 0 11 5 -3 51 -12 42 -22 49 -32 23z"/>
<path d="M3710 1410 c0 -5 5 -10 10 -10 6 0 10 5 10 10 0 6 -4 10 -10 10 -5 0
-10 -4 -10 -10z"/>
<path d="M3395 1390 c-3 -5 1 -10 10 -10 9 0 13 5 10 10 -3 6 -8 10 -10 10 -2
0 -7 -4 -10 -10z"/>
<path d="M2790 1380 c-13 -8 -13 -10 2 -10 15 0 16 -4 8 -26 -6 -14 -10 -33
-10 -42 0 -27 16 0 28 46 10 44 3 52 -28 32z"/>
<path d="M2888 1369 c-21 -12 -24 -59 -6 -77 15 -15 58 -16 58 -1 0 6 -7 8
-16 5 -19 -7 -44 10 -44 30 0 24 30 45 50 34 27 -14 34 -12 20 5 -14 17 -37
19 -62 4z"/>
<path d="M3250 1331 c0 -28 5 -53 10 -56 6 -4 10 7 10 24 0 39 27 42 33 4 4
-21 4 -19 3 7 -1 27 -5 35 -18 34 -11 -1 -18 5 -18 17 0 11 -4 19 -10 19 -5 0
-10 -22 -10 -49z"/>
<path d="M3444 1374 c-12 -5 -6 -64 8 -64 5 0 7 12 6 26 -2 15 3 29 10 31 7 3
12 -5 12 -21 0 -13 5 -28 10 -31 11 -7 13 24 4 49 -6 15 -27 19 -50 10z"/>
<path d="M3400 1348 c0 -13 5 -30 10 -38 7 -11 10 -7 10 17 0 17 -4 35 -10 38
-6 3 -10 -4 -10 -17z"/>
<path d="M3095 1350 c4 -6 11 -8 16 -5 14 9 11 15 -7 15 -8 0 -12 -5 -9 -10z"/>
<path d="M3208 1349 c-8 -24 5 -79 18 -79 8 0 14 5 14 10 0 6 -4 10 -10 10
-12 0 -13 37 -1 42 5 2 3 8 -4 15 -9 9 -15 9 -17 2z"/>
<path d="M3339 1358 c-8 -17 -6 -64 3 -69 13 -8 48 0 48 12 0 22 -21 59 -35
59 -8 0 -16 -1 -16 -2z m28 -24 c-3 -3 -12 -4 -19 -1 -8 3 -5 6 6 6 11 1 17
-2 13 -5z m3 -24 c0 -5 -7 -10 -16 -10 -8 0 -12 5 -9 10 3 6 10 10 16 10 5 0
9 -4 9 -10z"/>
<path d="M2970 1325 c-18 -22 -8 -50 19 -50 32 0 49 28 32 49 -17 20 -35 20
-51 1z m40 -20 c0 -19 -20 -29 -32 -17 -8 8 -7 16 2 26 14 17 30 12 30 -9z"/>
<path d="M3058 1332 c-13 -2 -18 -13 -18 -38 0 -21 4 -33 10 -29 6 3 10 17 10
30 0 13 6 25 13 28 17 6 5 14 -15 9z"/>
<path d="M3148 1332 c-14 -2 -18 -13 -17 -40 1 -35 2 -36 8 -8 9 42 31 46 31
6 0 -18 4 -29 10 -25 14 9 12 51 -2 62 -7 5 -21 8 -30 5z"/>
<path d="M3098 1324 c-5 -4 -8 -21 -8 -38 0 -21 3 -27 11 -19 6 6 9 23 7 38
-2 15 -6 23 -10 19z"/>
<path d="M1890 1146 c0 -8 4 -17 9 -20 5 -4 7 3 4 14 -6 23 -13 26 -13 6z"/>
<path d="M0 17 c0 -10 570 -12 2973 -11 1634 1 2984 2 3000 3 15 0 27 6 27 11
0 7 -1007 10 -3000 10 -2424 0 -3000 -2 -3000 -13z"/>
</g>
</svg>
